<svg id="Layer_1" data-name="Layer 1" xmlns="http://www.w3.org/2000/svg" viewBox="0 0 131.81 82.15"><defs><style>.cls-1{isolation:isolate;}.cls-2{fill:#060d0d;}.cls-3{fill:#b76e79;}</style></defs><g id="Layer_2" data-name="Layer 2"><g id="Layer_1-2" data-name="Layer 1-2"><g class="cls-1"><path class="cls-2" d="M50,60V70.4H2.93V62.15L32.49,25.78H3.54V15.41H48.88v8.25L19.4,60Z" transform="translate(-2.93 -1.8)"/></g><g class="cls-1"><path class="cls-2" d="M71.53,50.92V70.4H59.05V50.76L38.19,15.41H51.43l14.4,24.43L80.22,15.41H92.46Z" transform="translate(-2.93 -1.8)"/></g><g class="cls-1"><path class="cls-2" d="M102.94,48.8,95.7,56.5V70.4H83.31v-55H95.7V41.1l23.87-25.69h13.85L111.1,39.92,134.73,70.4H120.18Z" transform="translate(-2.93 -1.8)"/></g><g class="cls-1"><path class="cls-2" d="M80.82,75.48h3.42a4.21,4.21,0,1,1,0,8.4H80.82Zm3.37,7.63a3.44,3.44,0,1,0,0-6.86H81.71v6.86Z" transform="translate(-2.93 -1.8)"/><path class="cls-2" d="M96.67,83.11v.77H90.73v-8.4h5.76v.77H91.62v3H96V80H91.62v3.12Z" transform="translate(-2.93 -1.8)"/><path class="cls-2" d="M98,82.86l.35-.68a4.17,4.17,0,0,0,2.77,1c1.57,0,2.26-.66,2.26-1.49,0-2.3-5.17-.89-5.17-4,0-1.24,1-2.31,3.09-2.31a4.71,4.71,0,0,1,2.6.75l-.3.7a4.36,4.36,0,0,0-2.3-.69c-1.53,0-2.22.68-2.22,1.52,0,2.3,5.17.91,5.17,4,0,1.24-1,2.29-3.13,2.29A4.56,4.56,0,0,1,98,82.86Z" transform="translate(-2.93 -1.8)"/><path class="cls-2" d="M106.14,75.48H107v8.4h-.88Z" transform="translate(-2.93 -1.8)"/><path class="cls-2" d="M115.67,79.68h.85v3.2A4.6,4.6,0,0,1,113.44,84a4.27,4.27,0,1,1,0-8.54,4.13,4.13,0,0,1,3.12,1.21l-.55.57a3.55,3.55,0,1,0-2.54,6,3.6,3.6,0,0,0,2.19-.65Z" transform="translate(-2.93 -1.8)"/><path class="cls-2" d="M126.05,75.48v8.4h-.73l-5.4-6.81v6.81H119v-8.4h.73l5.41,6.82V75.48Z" transform="translate(-2.93 -1.8)"/><path class="cls-2" d="M128,82.86l.35-.68a4.15,4.15,0,0,0,2.77,1c1.57,0,2.25-.66,2.25-1.49,0-2.3-5.17-.89-5.17-4,0-1.24,1-2.31,3.1-2.31a4.73,4.73,0,0,1,2.6.75l-.3.7a4.38,4.38,0,0,0-2.3-.69c-1.54,0-2.22.68-2.22,1.52,0,2.3,5.17.91,5.17,4,0,1.24-1,2.29-3.13,2.29A4.54,4.54,0,0,1,128,82.86Z" transform="translate(-2.93 -1.8)"/></g><g class="cls-1"><g class="cls-1"><path class="cls-3" d="M11.31,8c0,1.42-1.05,2.24-3.15,2.24H4.3V1.8H7.92c1.87,0,2.95.8,2.95,2.16A2,2,0,0,1,9.59,5.87,2,2,0,0,1,11.31,8ZM5.19,2.54v3H7.86C9.2,5.58,10,5.07,10,4.06S9.2,2.54,7.86,2.54Zm5.24,5.35c0-1.1-.81-1.58-2.28-1.58h-3V9.47h3C9.62,9.47,10.43,9,10.43,7.89Z" transform="translate(-2.93 -1.8)"/><path class="cls-3" d="M19.08,10.2,17.16,7.5a4.83,4.83,0,0,1-.67,0H14.23V10.2h-.88V1.8h3.14c2.13,0,3.43,1.08,3.43,2.88A2.6,2.6,0,0,1,18,7.32l2.05,2.88Zm0-5.52c0-1.34-.89-2.11-2.57-2.11H14.23V6.78h2.23C18.14,6.78,19,6,19,4.68Z" transform="translate(-2.93 -1.8)"/><path class="cls-3" d="M27.29,8H22.61l-1,2.24h-.92l3.84-8.4h.87l3.84,8.4h-.94ZM27,7.24,25,2.73l-2,4.51Z" transform="translate(-2.93 -1.8)"/><path class="cls-3" d="M30.62,1.8H34c2.69,0,4.5,1.73,4.5,4.2s-1.81,4.2-4.5,4.2H30.62ZM34,9.43A3.36,3.36,0,0,0,37.67,6,3.37,3.37,0,0,0,34,2.57H31.51V9.43Z" transform="translate(-2.93 -1.8)"/><path class="cls-3" d="M40.54,1.8h.88V9.43h4.71v.77H40.54Z" transform="translate(-2.93 -1.8)"/></g><g class="cls-1"><path class="cls-3" d="M53.54,9.43v.77H47.61V1.8h5.75v.77H48.5v3h4.34v.75H48.5V9.43Z" transform="translate(-2.93 -1.8)"/></g><g class="cls-1"><path class="cls-3" d="M58.41,7.3v2.9h-.88V7.3L54.17,1.8h.95L58,6.52,60.88,1.8h.88Z" transform="translate(-2.93 -1.8)"/></g></g></g></g></svg>